<svg id="Layer_1" data-name="Layer 1" xmlns="http://www.w3.org/2000/svg" viewBox="0 0 557.1593 164"><defs><style>.cls-1{fill:#fff;}</style></defs><path d="M510.6342,80.7984a33.3584,33.3584,0,0,1-.2,4.0506h-25.837A14.8952,14.8952,0,0,0,488.1062,93.2a9.4111,9.4111,0,0,0,7.2669,2.9952,13.2935,13.2935,0,0,0,8.6-3.1806l3.48,4.0506a17.7374,17.7374,0,0,1-12.2944,4.6924,15.2349,15.2349,0,0,1-12.33-5.4911q-4.589-5.4982-4.5926-13.8705,0-9.039,4.5926-14.1843,4.5891-5.1347,12.33-5.0989a14.7961,14.7961,0,0,1,11.132,4.4785Q510.6235,72.0731,510.6342,80.7984ZM484.4407,79.5h20.032c-.1-3.9008-1.0625-6.7034-2.8953-8.3864a9.188,9.188,0,0,0-6.4325-2.5317q-4.9206,0-7.6306,2.8882A12.6544,12.6544,0,0,0,484.4407,79.5Z"/><path class="cls-1" d="M504.4727,79.5h-20.032a12.6544,12.6544,0,0,1,3.0736-8.03q2.7065-2.8881,7.6306-2.8882a9.188,9.188,0,0,1,6.4325,2.5317C503.41,72.797,504.3729,75.6,504.4727,79.5Z"/><path d="M470.3563,63.9541V99.24q0,8.6753-4.5213,12.5084-4.5141,3.84-12.8365,4.343l-3.0379-4.9207q8.1082-.5027,11.1748-2.8382a7.768,7.768,0,0,0,3.0736-6.5466V97.3075q-3.2519,4.482-9.9767,4.4785A14.0816,14.0816,0,0,1,443.1644,96.73q-4.4072-5.07-4.4072-14.32,0-8.9,4.3359-14.0987a14.1175,14.1175,0,0,1,11.4244-5.1987q6.2149,0,9.6915,3.9721V63.9541Zm-6.1473,26.75V73.7169a9.887,9.887,0,0,0-3.78-3.6512,10.0231,10.0231,0,0,0-4.8778-1.3407q-5.1347,0-7.8089,3.5086t-2.6742,10.1622q0,6.354,2.8882,10.0124A9.2187,9.2187,0,0,0,455.53,96.06a9.5026,9.5026,0,0,0,4.9563-1.4192A10.0794,10.0794,0,0,0,464.209,90.7038Z"/><path class="cls-1" d="M464.209,73.7169V90.7038a10.0794,10.0794,0,0,1-3.7225,3.9365A9.5026,9.5026,0,0,1,455.53,96.06a9.2187,9.2187,0,0,1-7.5735-3.6513q-2.8883-3.6583-2.8882-10.0124,0-6.6535,2.6742-10.1622t7.8089-3.5086a10.0231,10.0231,0,0,1,4.8778,1.3407A9.887,9.887,0,0,1,464.209,73.7169Z"/><path d="M433.33,64.8455V77.6178H427.183V69.2527c-.4778-.0428-1.2266-.0713-2.2393-.0713a16.0283,16.0283,0,0,0-9.5061,2.7455,8.96,8.96,0,0,0-3.8723,7.7233V95.4177h10.7755v5.4982H397.5379V95.4105h7.7375V69.4452h-7.7375V63.9541H411.13v6.4325a13.2609,13.2609,0,0,1,5.8976-5.3129,18.33,18.33,0,0,1,8.2082-1.9611A16.0349,16.0349,0,0,1,433.33,64.8455Z"/><path d="M392.1109,80.7984a31.9718,31.9718,0,0,1-.2139,4.0506H366.0815A14.8945,14.8945,0,0,0,369.59,93.2a9.4108,9.4108,0,0,0,7.2668,2.9952,13.3127,13.3127,0,0,0,8.6076-3.1806L388.93,97.065a17.7076,17.7076,0,0,1-12.2873,4.6924,15.2206,15.2206,0,0,1-12.323-5.4911q-4.5891-5.4982-4.6-13.8705,0-9.039,4.5926-14.1843,4.6-5.1347,12.33-5.0989a14.8183,14.8183,0,0,1,11.1321,4.4785Q392.118,72.0731,392.1109,80.7984ZM365.9388,79.5h20.032c-.1-3.9008-1.0625-6.7034-2.8953-8.3864a9.188,9.188,0,0,0-6.4325-2.5317q-4.9206,0-7.6306,2.8882A12.6544,12.6544,0,0,0,365.9388,79.5Z"/><path class="cls-1" d="M385.9708,79.5h-20.032a12.6544,12.6544,0,0,1,3.0736-8.03q2.7065-2.8881,7.6306-2.8882a9.188,9.188,0,0,1,6.4325,2.5317C384.9083,72.797,385.871,75.6,385.9708,79.5Z"/><path d="M352.9241,75.8706v25.0453h-6.0189V78.2739a21.1928,21.1928,0,0,0-.87-7.2313,3.369,3.369,0,0,0-3.4659-2.1679A4.2211,4.2211,0,0,0,338.59,71.549a16.3891,16.3891,0,0,0-1.2979,7.0886v22.2783h-5.9832V77.6178a19.6537,19.6537,0,0,0-.8272-6.4682,3.2074,3.2074,0,0,0-3.309-2.2749,4.4977,4.4977,0,0,0-4.1219,2.71,14.8848,14.8848,0,0,0-1.4477,7.0458v22.2855h-5.9975V63.9541h5.6338V68.725q2.1822-5.616,7.1742-5.6124a6.7007,6.7007,0,0,1,4.6211,1.6616,8.7205,8.7205,0,0,1,2.61,3.9722q3.1128-5.6374,8.2367-5.6338,4.6318,0,6.839,3.0308Q352.9241,69.1814,352.9241,75.8706Z"/><path d="M288.7774,77.4751l.0357,8.8857H284.627q-2.2037.0215-2.2036,2.389l.1426,28.3258a6.3,6.3,0,0,1-1.74,4.6069,6.1245,6.1245,0,0,1-4.55,1.8327l-7.9658.0357-.0285-5.9119,5.6694-.0285c1.4762,0,2.2036-.8273,2.2036-2.4675l-.1355-26.2791a6.3062,6.3062,0,0,1,1.7472-4.6068,6.1794,6.1794,0,0,1,4.6283-1.8328h.9841V81.44h-.9841a6.2113,6.2113,0,0,1-4.65-1.79,6.2973,6.2973,0,0,1-1.7828-4.5641l-.1355-26.279c-.0071-1.6331-.7559-2.4532-2.2321-2.4532h-2.09L248.05,102.3351h-4.9848L219.6175,46.3325h-2.1038c-1.4833,0-2.225.8129-2.225,2.4532l-.1355,26.279a6.2551,6.2551,0,0,1-1.79,4.5855,6.1469,6.1469,0,0,1-4.65,1.79H207.73v1.0126h.977a6.2064,6.2064,0,0,1,4.6354,1.8328,6.3,6.3,0,0,1,1.74,4.6069l-.1283,26.279c-.0143,1.64.7274,2.4675,2.1964,2.4675l5.6766.0285-.0285,5.9119-7.9658-.0356a6.1136,6.1136,0,0,1-4.55-1.8328,6.3115,6.3115,0,0,1-1.74-4.65l.1426-28.3258c0-1.59-.7274-2.389-2.2107-2.389h-4.1862l.0571-8.8287h4.1932q2.2251,0,2.225-2.3676l.1427-28.3543a6.3563,6.3563,0,0,1,1.7757-4.5926,6.09,6.09,0,0,1,4.564-1.7757l8.6361.0214L245.5542,91.36l21.6794-50.9108,8.6289-.0214a6.1042,6.1042,0,0,1,4.5712,1.7614,6.3223,6.3223,0,0,1,1.7829,4.5926l.1426,28.333c.0071,1.576.7559,2.36,2.2321,2.36Z"/><path class="cls-1" d="M208.7136,81.44a6.1469,6.1469,0,0,0,4.65-1.79,6.2551,6.2551,0,0,0,1.79-4.5855l.1355-26.279c0-1.64.7417-2.4532,2.225-2.4532h2.1038l23.4479,56.0026H248.05l23.4551-55.9812h2.09c1.4762,0,2.225.82,2.2321,2.4532l.1355,26.279a6.2973,6.2973,0,0,0,1.7828,4.5641,6.2113,6.2113,0,0,0,4.65,1.79h.9841v.9841h-.9841a6.1794,6.1794,0,0,0-4.6283,1.8328,6.3062,6.3062,0,0,0-1.7472,4.6068l.1355,26.2791c0,1.64-.7274,2.4675-2.2036,2.4675l-5.6694.0285.0285,5.9119,7.9658-.0357a6.1245,6.1245,0,0,0,4.55-1.8327,6.3,6.3,0,0,0,1.74-4.6069L282.4234,88.75q0-2.364,2.2036-2.389h4.1861l-.0357-8.8857h-4.1861c-1.4762,0-2.225-.7844-2.2321-2.36l-.1426-28.333a6.3223,6.3223,0,0,0-1.7829-4.5926,6.1042,6.1042,0,0,0-4.5712-1.7614l-8.6289.0214L245.5542,91.36,223.882,40.4491l-8.6361-.0214a6.09,6.09,0,0,0-4.564,1.7757,6.3563,6.3563,0,0,0-1.7757,4.5926L208.7635,75.15q0,2.364-2.225,2.3676h-4.1932l-.0571,8.8287h4.1862c1.4833,0,2.2107.7987,2.2107,2.389l-.1426,28.3258a6.3115,6.3115,0,0,0,1.74,4.65,6.1136,6.1136,0,0,0,4.55,1.8328l7.9658.0356.0285-5.9119-5.6766-.0285c-1.469,0-2.2107-.8272-2.1964-2.4675l.1283-26.279a6.3,6.3,0,0,0-1.74-4.6069,6.2064,6.2064,0,0,0-4.6354-1.8328h-.977V81.44ZM552.0033,5.156V158.844H164.0213V5.156ZM510.4346,84.849a33.3584,33.3584,0,0,0,.2-4.0506q-.0107-8.7288-4.343-13.2073a14.7961,14.7961,0,0,0-11.132-4.4785q-7.7446-.0429-12.33,5.0989-4.589,5.1453-4.5926,14.1843.0108,8.3651,4.5926,13.8705a15.2349,15.2349,0,0,0,12.33,5.4911,17.7374,17.7374,0,0,0,12.2944-4.6924l-3.48-4.0506a13.2935,13.2935,0,0,1-8.6,3.1806A9.4111,9.4111,0,0,1,488.1062,93.2a14.8952,14.8952,0,0,1-3.5086-8.3508ZM470.3563,99.24V63.9541H464.209v3.1306q-3.4766-3.9792-9.6915-3.9721a14.1175,14.1175,0,0,0-11.4244,5.1987Q438.7608,73.51,438.7572,82.41q0,9.2531,4.4072,14.32a14.0816,14.0816,0,0,0,11.0679,5.0562q6.7284,0,9.9767-4.4785v4.4785a7.768,7.768,0,0,1-3.0736,6.5466q-3.07,2.3426-11.1748,2.8382l3.0379,4.9207q8.3223-.5028,12.8365-4.343Q470.36,107.919,470.3563,99.24ZM433.33,77.6178V64.8455a16.0349,16.0349,0,0,0-8.0941-1.7329,18.33,18.33,0,0,0-8.2082,1.9611,13.2609,13.2609,0,0,0-5.8976,5.3129V63.9541H397.5379v5.4911h7.7375V95.4105h-7.7375v5.5054h24.8029V95.4177H411.5653V79.65a8.96,8.96,0,0,1,3.8723-7.7233,16.0283,16.0283,0,0,1,9.5061-2.7455c1.0127,0,1.7615.0285,2.2393.0713v8.3651ZM391.897,84.849a31.9718,31.9718,0,0,0,.2139-4.0506q0-8.7288-4.3358-13.2073a14.8183,14.8183,0,0,0-11.1321-4.4785q-7.734-.0429-12.33,5.0989-4.5891,5.1453-4.5926,14.1843.0106,8.3651,4.6,13.8705a15.2206,15.2206,0,0,0,12.323,5.4911A17.7076,17.7076,0,0,0,388.93,97.065l-3.4658-4.0506a13.3127,13.3127,0,0,1-8.6076,3.1806A9.4108,9.4108,0,0,1,369.59,93.2a14.8945,14.8945,0,0,1-3.5086-8.3508Zm-38.9729,16.0669V75.8706q0-6.6964-2.2036-9.7272-2.2143-3.038-6.839-3.0308-5.1239,0-8.2367,5.6338a8.7205,8.7205,0,0,0-2.61-3.9722,6.7007,6.7007,0,0,0-4.6211-1.6616q-4.9956,0-7.1742,5.6124V63.9541h-5.6338v36.9618h5.9975V78.63a14.8848,14.8848,0,0,1,1.4477-7.0458,4.4977,4.4977,0,0,1,4.1219-2.71,3.2074,3.2074,0,0,1,3.309,2.2749,19.6537,19.6537,0,0,1,.8272,6.4682v23.2981h5.9832V78.6376A16.3891,16.3891,0,0,1,338.59,71.549a4.2211,4.2211,0,0,1,3.9793-2.6743,3.369,3.369,0,0,1,3.4659,2.1679,21.1928,21.1928,0,0,1,.87,7.2313v22.642Z"/><path class="cls-1" d="M131.3953,83.3015l.2,18.9979h-4.2V83.4013a27.253,27.253,0,0,0-.1-2.8026,10.8369,10.8369,0,0,0-.3994-2.496,4.16,4.16,0,0,0-1.0982-1.8042,3.4091,3.4091,0,0,0-2.2036-.6989,3.5356,3.5356,0,0,0-2.5958.9984,5.47,5.47,0,0,0-1.0554,1.4334l-1.5475-1.0341a11.4087,11.4087,0,0,1,.599-1.3977,6.588,6.588,0,0,1,1.2052-1.6973,7.02,7.02,0,0,1,1.8969-1.5047,5.4586,5.4586,0,0,1,2.8027-.599,8.0623,8.0623,0,0,1,3.3945.7987,5.5818,5.5818,0,0,1,2.1037,2.2036,7.78,7.78,0,0,1,.8986,3.7012C131.3953,80,131.3953,81.5971,131.3953,83.3015Z"/><path class="cls-1" d="M118.3949,76.9973l1.5475,1.0341a4.603,4.603,0,0,0-.3423.97,14.9318,14.9318,0,0,0-.6062,3.1021c-.1,1.0982-.2,2.0966-.2,2.8953V102.1h-4.2V72.4974h3.8011Z"/><rect class="cls-1" x="105.6939" y="62.0001" width="4.4999" height="5.1988"/><rect class="cls-1" x="105.7937" y="72.4974" width="4.2004" height="29.802"/><path class="cls-1" d="M101.8,70.7a12.2394,12.2394,0,0,1,.2,3.3019,14.6038,14.6038,0,0,1-.5064,4.7,10.5291,10.5291,0,0,1-1.8969,3.8011,9.6069,9.6069,0,0,1-3.4017,2.5958,11.4367,11.4367,0,0,1-5.1987.8985H86.9955v16.3023h-4.6V62h7.8017a24.8532,24.8532,0,0,1,5.3985.599,8.3618,8.3618,0,0,1,3.801,2.603c.2995.3993.599.8985.8986,1.2979a15.08,15.08,0,0,1,.8985,1.7971A10.7087,10.7087,0,0,1,101.8,70.7ZM97.5,74.102a10.7491,10.7491,0,0,0-.8059-4.7,6.3543,6.3543,0,0,0-1.8969-2.4032,5.0358,5.0358,0,0,0-2.3035-.8986,13.3846,13.3846,0,0,0-1.9967-.1H86.9955V82.0036h3.801a10.5848,10.5848,0,0,0,2.6029-.3067,4.4429,4.4429,0,0,0,2.0966-1.1981,6.0688,6.0688,0,0,0,1.4976-2.3961A10.6433,10.6433,0,0,0,97.5,74.102Z"/><path d="M96.6941,69.4024a10.7491,10.7491,0,0,1,.8059,4.7,10.6433,10.6433,0,0,1-.5064,4.0007,6.0688,6.0688,0,0,1-1.4976,2.3961,4.4429,4.4429,0,0,1-2.0966,1.1981,10.5848,10.5848,0,0,1-2.6029.3067h-3.801V66.0008H90.497a13.3846,13.3846,0,0,1,1.9967.1,5.0358,5.0358,0,0,1,2.3035.8986A6.3543,6.3543,0,0,1,96.6941,69.4024Z"/><polygon class="cls-1" points="69.595 80.599 78.495 102.299 73.296 102.299 66.899 85.598 60.495 102.299 55.995 102.299 64.796 81.298 57.101 62 62 62 67.398 76.498 72.997 62 77.496 62 69.595 80.599"/><path class="cls-1" d="M53,62l-.2,28.0976a22.7064,22.7064,0,0,1-.1,2.5031,26.91,26.91,0,0,1-.2995,2.8026,13.49,13.49,0,0,1-.9057,2.7955,6.1073,6.1073,0,0,1-1.7971,2.4033,9.5181,9.5181,0,0,1-2.9024,1.6972,13.0741,13.0741,0,0,1-4.4.6989A11.6659,11.6659,0,0,1,36.5981,101.8a7.2514,7.2514,0,0,1-3.0023-3.0023,11.8758,11.8758,0,0,1-1.0982-4.1c-.1-1.4976-.2-2.9952-.2-4.5V62h4.7V90.0977c0,1.2052,0,2.4032.1,3.5015a7.1957,7.1957,0,0,0,.599,2.9024,3.9153,3.9153,0,0,0,1.7044,1.897,5.9908,5.9908,0,0,0,3.1949.6988c2.2036,0,3.801-.6988,4.7-1.9967.9057-1.2979,1.3051-3.6014,1.3051-6.8034V62Z"/><path d="M0,0V164l557.1592-.5491V0ZM114.5939,72.4974h3.801v4.5a11.422,11.422,0,0,1,.599-1.3977,6.5876,6.5876,0,0,1,1.2051-1.6973,7.0229,7.0229,0,0,1,1.8971-1.5047,5.4594,5.4594,0,0,1,2.8026-.5991,8.0643,8.0643,0,0,1,3.3945.7988,5.5822,5.5822,0,0,1,2.1037,2.2035,7.7811,7.7811,0,0,1,.8986,3.7013c.1,1.4975.1,3.0949.1,4.7994l.2,18.9979h-4.2V83.4013a27.2783,27.2783,0,0,0-.1-2.8026,10.8361,10.8361,0,0,0-.3994-2.496,4.16,4.16,0,0,0-1.0983-1.8042,3.4092,3.4092,0,0,0-2.2036-.6989,3.5359,3.5359,0,0,0-2.5958.9983,5.4688,5.4688,0,0,0-1.0554,1.4334,4.6134,4.6134,0,0,0-.3423.97,14.9334,14.9334,0,0,0-.6062,3.102c-.1,1.0983-.2,2.0966-.2,2.8954V102.1h-4.2ZM105.6939,62h4.5v5.1987h-4.5Zm4.3,10.4973v29.802h-4.2005V72.4974ZM82.3958,62h7.8017a24.8453,24.8453,0,0,1,5.3983.599,8.3616,8.3616,0,0,1,3.8011,2.6029c.2995.3994.5991.8986.8985,1.298a15.058,15.058,0,0,1,.8986,1.7971A10.71,10.71,0,0,1,101.8,70.7a12.2391,12.2391,0,0,1,.2,3.3019,14.601,14.601,0,0,1-.5063,4.7,10.531,10.531,0,0,1-1.8969,3.801,9.606,9.606,0,0,1-3.4017,2.5959,11.4342,11.4342,0,0,1-5.1988.8984H86.9955v16.3024h-4.6ZM57.1007,62H62l5.3983,14.4981L72.9966,62h4.5L69.5949,80.5987l8.9,21.7007H73.296L66.8992,85.5978l-6.4039,16.7016h-4.5l8.8-21.0018ZM32.298,62h4.6994V90.0976c0,1.2053,0,2.4033.1,3.5016a7.1935,7.1935,0,0,0,.5989,2.9023,3.9148,3.9148,0,0,0,1.7045,1.8971,5.99,5.99,0,0,0,3.1948.6988c2.2035,0,3.8009-.6988,4.7-1.9968.9057-1.2979,1.3051-3.6014,1.3051-6.8032V62H53l-.2,28.0975a22.6891,22.6891,0,0,1-.1,2.5033,26.9409,26.9409,0,0,1-.2994,2.8025,13.4964,13.4964,0,0,1-.9057,2.7955,6.1064,6.1064,0,0,1-1.7972,2.4031,9.5193,9.5193,0,0,1-2.9025,1.6974,13.0731,13.0731,0,0,1-4.4.6989A11.6676,11.6676,0,0,1,36.598,101.8a7.2521,7.2521,0,0,1-3.0022-3.0022,11.8793,11.8793,0,0,1-1.0983-4.1006c-.1-1.4976-.2-2.9953-.2-4.5ZM552.0032,158.844H164.0214V5.156H552.0032Z"/></svg>